<?xml version="1.0" encoding="UTF-8" standalone="no"?>
<!DOCTYPE svg PUBLIC "-//W3C//DTD SVG 1.1//EN" "http://www.w3.org/Graphics/SVG/1.1/DTD/svg11.dtd">
<svg width="100%" height="100%" viewBox="0 0 853 400" version="1.1" xmlns="http://www.w3.org/2000/svg" xmlns:xlink="http://www.w3.org/1999/xlink" xml:space="preserve" xmlns:serif="http://www.serif.com/" style="fill-rule:evenodd;clip-rule:evenodd;stroke-linejoin:round;stroke-miterlimit:2;">
    <g transform="matrix(2.90931,0,0,2.42538,-1130.09,-504.867)">
        <g transform="matrix(96,0,0,96,391.854,311.49)">
            <path d="M1.152,-0.068L1.223,-0.006L1.223,-0L0.925,-0L0.925,-0.006L0.997,-0.068L0.997,-0.478L0.766,-0.047L0.751,-0.047L0.526,-0.476L0.526,-0.068L0.597,-0.006L0.597,-0L0.389,-0L0.389,-0.006L0.46,-0.068L0.46,-0.569C0.459,-0.571 0.455,-0.577 0.449,-0.586C0.443,-0.595 0.436,-0.604 0.43,-0.615C0.423,-0.625 0.416,-0.634 0.41,-0.643C0.404,-0.652 0.401,-0.657 0.4,-0.658L0.4,-0.662L0.592,-0.662L0.808,-0.252L1.021,-0.662L1.221,-0.662L1.221,-0.658L1.152,-0.594L1.152,-0.068ZM0.209,-0.348C0.228,-0.376 0.247,-0.399 0.265,-0.418C0.282,-0.436 0.296,-0.445 0.306,-0.445C0.32,-0.445 0.335,-0.443 0.351,-0.439C0.367,-0.434 0.378,-0.431 0.385,-0.428L0.343,-0.302C0.335,-0.307 0.323,-0.313 0.307,-0.32C0.29,-0.327 0.274,-0.33 0.259,-0.33C0.239,-0.33 0.222,-0.324 0.209,-0.312L0.209,-0.06L0.296,-0.006L0.296,-0L0.018,-0L0.018,-0.006L0.074,-0.057L0.074,-0.312L0.02,-0.355L0.02,-0.361L0.209,-0.446L0.209,-0.348Z" style="fill-rule:nonzero;"/>
        </g>
        <g transform="matrix(96,0,0,96,512.814,311.49)">
            <path d="M0.191,-0.431C0.213,-0.431 0.233,-0.429 0.251,-0.426C0.268,-0.423 0.28,-0.42 0.286,-0.418L0.286,-0.323L0.28,-0.323C0.263,-0.342 0.246,-0.358 0.231,-0.371C0.215,-0.384 0.197,-0.39 0.178,-0.39C0.166,-0.39 0.155,-0.386 0.146,-0.379C0.137,-0.372 0.132,-0.361 0.132,-0.347C0.132,-0.33 0.138,-0.316 0.151,-0.306C0.164,-0.295 0.181,-0.283 0.204,-0.268C0.218,-0.259 0.232,-0.249 0.246,-0.241C0.259,-0.232 0.271,-0.222 0.282,-0.211C0.292,-0.2 0.3,-0.187 0.307,-0.173C0.314,-0.158 0.317,-0.142 0.317,-0.123C0.317,-0.084 0.303,-0.053 0.274,-0.028C0.245,-0.003 0.205,0.01 0.155,0.01C0.129,0.01 0.105,0.007 0.084,0.002C0.062,-0.004 0.046,-0.009 0.037,-0.014C0.036,-0.021 0.035,-0.029 0.034,-0.041C0.033,-0.051 0.032,-0.064 0.031,-0.077C0.03,-0.09 0.03,-0.104 0.03,-0.118C0.029,-0.132 0.029,-0.145 0.03,-0.157L0.037,-0.157C0.042,-0.145 0.048,-0.132 0.055,-0.118C0.062,-0.104 0.071,-0.091 0.081,-0.079C0.091,-0.066 0.103,-0.056 0.116,-0.048C0.129,-0.04 0.144,-0.036 0.16,-0.036C0.177,-0.036 0.192,-0.041 0.203,-0.052C0.214,-0.063 0.22,-0.076 0.22,-0.093C0.22,-0.112 0.214,-0.128 0.201,-0.14C0.188,-0.152 0.168,-0.166 0.143,-0.181C0.114,-0.199 0.091,-0.218 0.072,-0.239C0.053,-0.259 0.044,-0.285 0.044,-0.317C0.044,-0.352 0.057,-0.379 0.085,-0.4C0.112,-0.421 0.147,-0.431 0.191,-0.431Z" style="fill-rule:nonzero;"/>
        </g>
        <g transform="matrix(96,0,0,96,545.07,311.49)">
            <path d="M0.229,0.038C0.209,0.09 0.194,0.134 0.183,0.17C0.172,0.205 0.166,0.235 0.163,0.258L0.045,0.258L0.045,0.253C0.063,0.238 0.085,0.213 0.11,0.179C0.135,0.144 0.16,0.097 0.183,0.037L0.203,-0.013L0.047,-0.369L-0.003,-0.414L-0.003,-0.42L0.217,-0.42L0.217,-0.414L0.163,-0.369L0.254,-0.145L0.338,-0.369L0.282,-0.414L0.282,-0.42L0.439,-0.42L0.439,-0.414L0.389,-0.369L0.229,0.038Z" style="fill-rule:nonzero;"/>
        </g>
        <g transform="matrix(96,0,0,96,586.926,311.49)">
            <path d="M0.018,-0L0.018,-0.006L0.075,-0.052L0.075,-0.341L0.02,-0.376L0.02,-0.383C0.023,-0.384 0.029,-0.386 0.04,-0.39C0.05,-0.393 0.063,-0.398 0.078,-0.403C0.093,-0.408 0.109,-0.413 0.127,-0.419C0.145,-0.424 0.163,-0.429 0.181,-0.434L0.181,-0.358C0.2,-0.377 0.223,-0.394 0.25,-0.409C0.277,-0.424 0.304,-0.431 0.331,-0.431C0.35,-0.431 0.367,-0.428 0.383,-0.422C0.399,-0.415 0.413,-0.407 0.425,-0.397C0.436,-0.387 0.445,-0.376 0.452,-0.364C0.458,-0.351 0.461,-0.339 0.461,-0.327L0.461,-0.052L0.519,-0.006L0.519,-0L0.299,-0L0.299,-0.006L0.355,-0.052L0.355,-0.294C0.355,-0.311 0.348,-0.327 0.335,-0.342C0.322,-0.356 0.301,-0.363 0.272,-0.363C0.251,-0.363 0.233,-0.359 0.218,-0.35C0.203,-0.341 0.19,-0.333 0.181,-0.324L0.181,-0.052L0.238,-0.006L0.238,-0L0.018,-0Z" style="fill-rule:nonzero;"/>
        </g>
        <g transform="matrix(96,0,0,96,637.998,311.49)">
            <path d="M0.263,-0.431C0.29,-0.431 0.315,-0.429 0.338,-0.426C0.361,-0.422 0.376,-0.419 0.385,-0.418L0.385,-0.305L0.378,-0.305C0.37,-0.314 0.361,-0.324 0.35,-0.334C0.339,-0.343 0.328,-0.352 0.316,-0.36C0.304,-0.368 0.292,-0.375 0.279,-0.38C0.266,-0.385 0.252,-0.387 0.239,-0.387C0.224,-0.387 0.209,-0.383 0.196,-0.375C0.182,-0.367 0.17,-0.356 0.16,-0.343C0.149,-0.329 0.141,-0.313 0.135,-0.295C0.129,-0.276 0.126,-0.256 0.126,-0.235C0.126,-0.182 0.141,-0.14 0.172,-0.11C0.202,-0.079 0.242,-0.064 0.291,-0.064C0.317,-0.064 0.339,-0.067 0.359,-0.073C0.378,-0.078 0.393,-0.084 0.404,-0.091L0.409,-0.084C0.402,-0.075 0.394,-0.065 0.384,-0.054C0.373,-0.043 0.361,-0.032 0.346,-0.023C0.331,-0.014 0.315,-0.006 0.296,0.001C0.277,0.007 0.257,0.01 0.234,0.01C0.205,0.01 0.178,0.005 0.153,-0.005C0.128,-0.014 0.106,-0.028 0.087,-0.046C0.068,-0.064 0.052,-0.086 0.041,-0.113C0.03,-0.139 0.024,-0.169 0.024,-0.202C0.024,-0.233 0.029,-0.263 0.041,-0.291C0.051,-0.318 0.067,-0.343 0.088,-0.364C0.109,-0.385 0.134,-0.401 0.163,-0.413C0.192,-0.425 0.226,-0.431 0.263,-0.431Z" style="fill-rule:nonzero;"/>
        </g>
    </g>
</svg>
